<svg width="26" height="28" viewBox="0 0 26 28" fill="none" xmlns="http://www.w3.org/2000/svg">
<path d="M0 27.0724L16.5058 19.3809L7.53551 10.4948L0 27.0724Z" fill="#FFB819"/>
<path d="M9.76159 19.1704C10.8676 19.1704 11.7642 18.2738 11.7642 17.1678C11.7642 16.0618 10.8676 15.1652 9.76159 15.1652C8.65557 15.1652 7.75897 16.0618 7.75897 17.1678C7.75897 18.2738 8.65557 19.1704 9.76159 19.1704Z" fill="#FFD26C"/>
<path d="M4.24805 17.727C4.80236 17.7594 5.36731 17.5631 5.78879 17.1376C6.56071 16.3584 6.56079 15.1051 5.7944 14.3252L4.24805 17.727Z" fill="#FFD26C"/>
<path d="M2.04715 24.9554C1.6544 25.352 1.4616 25.8712 1.46773 26.3885L4.77554 24.847C3.98567 24.1661 2.79227 24.2033 2.04715 24.9554Z" fill="#FFD26C"/>
<path d="M10.0115 20.9062C9.53638 21.3858 9.35407 22.0451 9.4624 22.663L12.9686 21.0292C12.9292 20.9824 12.8879 20.9367 12.8436 20.8929C12.0579 20.1145 10.7899 20.1205 10.0115 20.9062Z" fill="#FFD26C"/>
<path d="M5.16252 23.1541C6.26854 23.1541 7.16514 22.2575 7.16514 21.1515C7.16514 20.0455 6.26854 19.1489 5.16252 19.1489C4.05651 19.1489 3.15991 20.0455 3.15991 21.1515C3.15991 22.2575 4.05651 23.1541 5.16252 23.1541Z" fill="#FFD26C"/>
<path d="M6.57507 12.6076L14.402 20.3612L16.5058 19.3809L7.53551 10.4948L6.57507 12.6076Z" fill="#004D7A"/>
<path d="M9.43222 7.76618C10.1865 7.76618 10.798 7.15468 10.798 6.40036C10.798 5.64604 10.1865 5.03455 9.43222 5.03455C8.6779 5.03455 8.06641 5.64604 8.06641 6.40036C8.06641 7.15468 8.6779 7.76618 9.43222 7.76618Z" fill="#00BCB4"/>
<path d="M19.8828 18.7594C20.6371 18.7594 21.2486 18.1479 21.2486 17.3936C21.2486 16.6393 20.6371 16.0278 19.8828 16.0278C19.1285 16.0278 18.517 16.6393 18.517 17.3936C18.517 18.1479 19.1285 18.7594 19.8828 18.7594Z" fill="#00BCB4"/>
<path d="M22.8519 12.6661C23.6062 12.6661 24.2177 12.0546 24.2177 11.3003C24.2177 10.546 23.6062 9.93451 22.8519 9.93451C22.0976 9.93451 21.4861 10.546 21.4861 11.3003C21.4861 12.0546 22.0976 12.6661 22.8519 12.6661Z" fill="#FFB819"/>
<path d="M12.4672 2.73163C13.2215 2.73163 13.833 2.12014 13.833 1.36582C13.833 0.611497 13.2215 0 12.4672 0C11.7129 0 11.1014 0.611497 11.1014 1.36582C11.1014 2.12014 11.7129 2.73163 12.4672 2.73163Z" fill="#FFB819"/>
<path d="M16.3226 14.7618C17.0769 14.7618 17.6884 14.1503 17.6884 13.396C17.6884 12.6416 17.0769 12.0302 16.3226 12.0302C15.5683 12.0302 14.9568 12.6416 14.9568 13.396C14.9568 14.1503 15.5683 14.7618 16.3226 14.7618Z" fill="#D85C72"/>
<path d="M17.1512 6.88071C17.9055 6.88071 18.517 6.26922 18.517 5.5149C18.517 4.76058 17.9055 4.14908 17.1512 4.14908C16.3968 4.14908 15.7853 4.76058 15.7853 5.5149C15.7853 6.26922 16.3968 6.88071 17.1512 6.88071Z" fill="#D85C72"/>
<path d="M24.1548 7.50776C24.9091 7.50776 25.5206 6.89626 25.5206 6.14194C25.5206 5.38762 24.9091 4.77612 24.1548 4.77612C23.4005 4.77612 22.789 5.38762 22.789 6.14194C22.789 6.89626 23.4005 7.50776 24.1548 7.50776Z" fill="#D85C72"/>
<path d="M9.33066 10.6103C9.05251 10.6103 8.82715 10.3848 8.82715 10.1068C8.82715 9.82869 9.05251 9.60325 9.33066 9.60325C11.2045 9.60325 12.7291 8.07875 12.7291 6.20485C12.7291 3.77566 14.7053 1.79941 17.1345 1.79941C19.5636 1.79941 21.5399 3.77566 21.5399 6.20485C21.5399 6.48293 21.3144 6.70829 21.0364 6.70829C20.7584 6.70829 20.533 6.48293 20.533 6.20485C20.533 4.33094 19.0084 2.80644 17.1346 2.80644C15.2607 2.80644 13.7362 4.33094 13.7362 6.20485C13.736 8.63403 11.7597 10.6103 9.33066 10.6103Z" fill="#00BCB4"/>
<path d="M22.5211 15.5091C20.6029 15.5091 19.0421 13.9484 19.0421 12.0301C19.0421 10.6671 17.9331 9.55806 16.5701 9.55806C15.207 9.55806 14.098 10.6671 14.098 12.0301C14.098 12.3082 13.8726 12.5336 13.5946 12.5336C13.3165 12.5336 13.0911 12.3082 13.0911 12.0301C13.0911 10.1119 14.6518 8.55118 16.5701 8.55118C18.4884 8.55118 20.0491 10.1119 20.0491 12.0301C20.0491 13.3932 21.158 14.5022 22.5211 14.5022C23.8842 14.5022 24.9931 13.3932 24.9931 12.0301C24.9931 11.7521 25.2186 11.5267 25.4967 11.5267C25.7746 11.5267 26 11.7521 26 12.0301C26.0001 13.9484 24.4394 15.5091 22.5211 15.5091Z" fill="#FFB819"/>
</svg>
